<?xml version="1.0" encoding="UTF-8"?>
<svg width="153px" height="40px" viewBox="0 0 153 40" version="1.1" xmlns="http://www.w3.org/2000/svg" xmlns:xlink="http://www.w3.org/1999/xlink">
    <title>LOGO-反白</title>
    <defs>
        <polygon id="path-1" points="0 0.102047244 35.8481922 0.102047244 35.8481922 40 0 40"></polygon>
        <polygon id="path-3" points="0.205169231 0.11725 51.9433846 0.11725 51.9433846 14.7588125 0.205169231 14.7588125"></polygon>
    </defs>
    <g id="LOGO-反白" stroke="none" stroke-width="1" fill="none" fill-rule="evenodd">
        <g id="Group-11">
            <g id="Group-3">
                <mask id="mask-2" fill="white">
                    <use xlink:href="#path-1"></use>
                </mask>
                <g id="Clip-2"></g>
                <path d="M32.6115474,7.29222047 C27.5819684,4.21725984 21.0264947,0.788913386 21.0264947,0.788913386 C19.0597579,-0.303685039 16.1415474,0.0531653543 14.8613368,0.845606299 C11.3857579,2.99773228 2.47354737,8.67017323 2.47354737,8.67017323 C1.44628421,9.31993701 0.226073684,10.7224567 0.112705263,12.8978898 C0.112705263,12.8978898 -3.25491817e-05,27.3495433 -3.25491817e-05,27.4604094 C-0.00129473684,28.9627717 1.23091579,31.6251339 3.19765263,32.7177323 C3.19765263,32.7177323 9.57123158,36.4708031 14.8408105,39.1167874 C14.8420737,39.1177323 18.0277579,40.9715906 20.6835474,39.3048189 C20.8847053,39.1785197 33.3792316,31.3218268 33.3792316,31.3218268 C34.7112316,30.5271811 35.7681789,28.6342677 35.7400737,27.0941102 L35.8481922,12.1479685 C35.8708105,9.01788976 32.6131263,7.29285039 32.6115474,7.29222047 L32.6115474,7.29222047 Z M31.8148105,25.5271811 C31.8369158,26.728126 31.0127053,28.2037165 29.9743895,28.8235591 C29.9743895,28.8235591 20.2335474,34.9482835 20.0769158,35.0468661 C18.0059684,36.3467087 15.5226,34.9010394 15.5213368,34.9007244 C11.4135474,32.8377323 6.4446,29.9114331 6.4446,29.9114331 C4.91112632,29.0597795 3.95049474,26.984189 3.95175665,25.8125354 C3.95175665,25.7265512 4.03923158,14.4597795 4.03923158,14.4597795 C4.12765263,12.7640315 5.07912632,11.6701732 5.87996842,11.1637165 C5.87996842,11.1637165 12.8279684,6.74135433 15.5377579,5.06355906 C16.5356526,4.44592126 18.8109158,4.16812598 20.3440737,5.01977953 C20.3440737,5.01977953 25.4544947,7.69222047 29.3759684,10.0893858 C29.3769158,10.0900157 31.9168105,11.4352126 31.8992182,13.8748976 L31.8148105,25.5271811 Z" id="Fill-1" fill="#FFFFFF" mask="url(#mask-2)"></path>
            </g>
            <path d="M24.2944337,18.4401423 L29,15.9186131 C28.9475753,23.4429086 28.9475753,23.4438457 28.9475753,23.4438457 C28.9641463,24.3814935 28.3446916,25.5352812 27.564046,26.0194098 C27.564046,26.0194098 20.2405602,30.8054115 20.1227554,30.8822474 C20.054061,30.9272245 19.9838601,30.9631438 19.9139606,31 L19.9139606,25.2398066 L22.982913,23.402929 C23.7942902,22.916614 24.2944337,22.0192582 24.2944337,21.0478776 L24.2944337,18.4401423 Z M13.6254101,15.2074126 L8.91743347,12.684634 C9.09248367,12.4925443 9.27536744,12.3344997 9.44981506,12.2195582 C9.44981506,12.2195582 14.673301,8.76381698 16.7106323,7.45292166 C17.4608474,6.97004242 19.1712777,6.7529654 20.3240179,7.41856414 C20.3240179,7.41856414 24.1660836,9.50656397 27.1142182,11.3799855 C27.1145195,11.3799855 28.0400862,11.8919125 28.5980775,12.845802 L23.6593118,15.4922676 C23.4688957,15.2620722 23.2441325,15.0593629 22.982913,14.90288 L19.8169448,13.0082193 C19.0055675,12.522529 18.0055819,12.522529 17.1939034,13.0082193 L14.0282365,14.90288 C13.8821103,14.9906479 13.7501447,15.0952821 13.6254101,15.2074126 L13.6254101,15.2074126 Z M17.0968876,25.2394943 L17.0968876,30.9637684 C16.8501301,30.8578848 16.6985806,30.7679306 16.6982793,30.7679306 C13.6100443,29.1562509 9.8743344,26.8692898 9.8743344,26.8692898 C8.72159417,26.2036911 7.99909782,24.5820164 8.00000085,23.6665448 C8.00030298,23.6109481 8.04519538,17.6115015 8.06086252,15.5131944 L12.7167158,18.008487 L12.7167158,21.0475652 C12.7167158,22.0189459 13.2165579,22.916614 14.0282365,23.4026166 L17.0968876,25.2394943 Z" id="Fill-4" fill="#FFFFFF"></path>
            <path d="M65.1687567,27.9977545 L57.9871447,27.9977545 C58.6059613,27.2250012 59.0826769,26.2050181 59.3583717,25.2468425 L64.9781335,25.2468425 C66.7567585,25.2468425 67.7060936,24.7677547 67.8330708,23.948886 C68.0413385,22.9058452 67.6018023,22.5273146 66.9681769,22.3876874 C66.5362027,22.2951363 65.0928225,22.3604665 63.8914235,22.2275644 C62.5791165,22.0824931 61.8849959,21.7234975 61.3859096,21.1361665 C60.8865083,20.5488356 60.6032516,19.7187583 60.6032516,18.3160814 C60.6032516,16.6700177 61.1023379,15.5187338 61.944861,14.7693584 C62.8015628,14.0119769 64.0243872,13.6488181 65.4327935,13.6027027 L73.6091121,13.6027027 C72.7741509,14.3981935 72.1181549,15.3720611 71.6710568,16.4538517 L65.8502741,16.4615376 C65.1599345,16.4615376 63.5397946,16.7939528 63.5397946,18.1457106 C63.5397946,19.4644831 64.8514714,19.7482209 65.529838,19.7373326 C69.4708551,19.6752049 71.0002521,20.1232288 70.9262083,22.9289029 C70.8950154,24.1090089 70.284706,25.9363319 69.3829479,26.8307786 C68.2584284,27.9468354 66.0705148,27.9977545 65.1687567,27.9977545 L65.1687567,27.9977545 Z M60.2380742,13.6027027 L58.2404688,23.8098993 C57.8072342,25.7275315 57.1729788,28.0829399 52.8964018,27.9977545 C53.7811456,26.8986707 54.260697,25.4787005 54.4094146,24.6675177 L56.6307266,13.6027027 L60.2380742,13.6027027 Z M44.2733001,13 L46.0399521,13 L45.6823366,14.8311659 L43.9156847,14.8311659 L44.2733001,13 Z M46.300523,13.4172804 L47.6645031,13.4172804 L47.3888084,14.8311659 L46.0245132,14.8311659 L46.300523,13.4172804 Z M44.9888462,15.0393257 L46.2186023,15.0393257 L45.972525,16.3068588 L44.743084,16.3068588 L44.9888462,15.0393257 Z M42,27.9977545 C43.4251056,26.2277556 43.723171,23.9492062 43.9232466,22.5894423 C44.126473,21.2104636 44.3571113,18.9652198 46.240973,18.9652198 L54.3347407,18.9652198 L54.1113492,20.0931257 C54.0221816,20.5488356 53.7537337,20.966116 53.3958031,21.2751532 C53.0457496,21.5845107 52.6058983,21.7699331 52.1663621,21.7699331 L48.8476274,21.7699331 C48.419119,21.7859454 47.6777365,21.8003565 47.4855378,23.0685301 C47.399206,23.637607 47.185582,24.5150807 47.0085072,24.953177 C46.5075304,26.1941298 45.8200265,27.9977545 42,27.9977545 L42,27.9977545 Z M53.1128616,16.407416 L46.2186023,16.407416 L46.4571177,15.1709467 L47.5526498,15.1709467 L47.8582771,13.6027027 L55.2891171,13.6027027 C55.252883,13.7826809 55.165921,14.242554 55.0657256,14.7229228 C54.9166929,15.4370711 54.1532548,16.407416 53.1128616,16.407416 L53.1128616,16.407416 Z M90.0821098,13.618715 C93.8885878,13.618715 97,16.8817002 97,20.8079145 C97,24.7783228 93.9027664,27.9967938 90.0821098,27.9967938 C88.4496818,27.9967938 86.9517928,27.4059401 85.7683534,26.4224651 C86.5031193,25.5831007 87.0734136,24.5922599 87.4152751,23.4954178 C88.0945869,24.2118078 89.0382507,24.6563091 90.0821098,24.6563091 C92.1509232,24.6563091 93.8277774,22.9138513 93.8277774,20.7637206 C93.8277774,18.6142303 92.1509232,16.8714523 90.0821098,16.8714523 C88.0136114,16.8714523 86.3367572,18.6142303 86.3367572,20.7637206 L86.3345516,20.7662826 C86.3225786,22.5125833 85.83389,24.1986778 84.7676602,25.4076059 C84.1208016,26.1412892 82.3771504,27.9967938 79.3946058,27.9967938 L70.8427122,27.9967938 C71.8371038,26.7343846 72.5000315,24.7975375 72.5000315,23.1553167 C72.5000315,23.1553167 72.5179911,22.6864768 72.5179911,20.8392986 C72.5179911,16.839748 75.6253072,13.639531 79.4358813,13.639531 C81.0516101,13.639531 82.5428823,14.1871514 83.7026908,15.1555749 C82.9572122,15.9975013 82.4187409,17.0081973 82.1285525,18.1031179 C81.4243494,17.3870481 80.4715483,16.9239726 79.4358813,16.9239726 C77.3648623,16.9239726 75.6662676,18.6920501 75.6662676,20.8392986 L75.6662676,23.0288196 C75.6662676,23.9552909 76.3707858,24.7129926 77.2819963,24.7129926 L79.3946058,24.7129926 C81.4243494,24.7129926 83.1878505,23.1870211 83.1878505,20.3646942 C83.4096666,16.6018053 86.4054446,13.618715 90.0821098,13.618715 L90.0821098,13.618715 Z" id="Fill-6" fill="#FFFFFF"></path>
            <g id="Group-10" transform="translate(101.000000, 13.000000)">
                <mask id="mask-4" fill="white">
                    <use xlink:href="#path-3"></use>
                </mask>
                <g id="Clip-9"></g>
                <path d="M8.94301538,3.3369375 C8.65963077,3.2544375 7.04116923,3.2544375 5.94916923,3.2956875 L5.30209231,6.5419375 C5.30209231,6.5419375 7.76978462,6.500375 8.13347692,6.459125 C8.78116923,6.37725 9.67070769,5.6375625 9.79255385,4.8569375 C9.99470769,3.82975 9.54978462,3.460375 8.94301538,3.3369375 L8.94301538,3.3369375 Z M9.27532308,10.43475 C9.30793846,9.446625 8.57686154,9.21225 7.9584,9.21225 L4.81686154,9.21225 L4.08855385,12.0885 C4.08855385,12.0885 6.10578462,12.08225 6.6824,12.08225 C8.11593846,12.08225 9.23470769,11.6738125 9.27532308,10.43475 L9.27532308,10.43475 Z M9.56978462,0.7488125 C15.0156308,0.7488125 13.0904,6.5419375 11.7337846,7.69225 C12.2291692,7.9435 12.8922462,11.552875 10.8039385,13.649125 C10.3282462,14.16475 9.27532308,14.7175625 7.16301538,14.7175625 C6.71778462,14.7588125 0.205169231,14.7588125 0.205169231,14.7588125 L0.205169231,14.7175625 L2.99624615,0.7488125 L9.56978462,0.7488125 Z M44.0839385,0.11725 L51.9436308,0.11725 C51.9076308,0.2963125 51.8211692,0.7525625 51.7211692,1.2306875 C51.5734769,1.93975 50.8140923,2.9038125 49.7802462,2.9038125 L44.4916308,2.90725 C43.8180923,2.90725 42.2353231,3.2313125 42.2353231,4.551 C42.2353231,5.8375625 43.5162462,6.1144375 44.1790154,6.1038125 C48.0273231,6.0431875 49.5211692,6.480375 49.4488615,9.2175625 C49.4177846,10.3700625 48.8220923,12.152875 47.9414769,13.026 C46.8436308,14.11475 44.7064,14.1638125 43.8260923,14.1638125 L36.8128615,14.1638125 C37.4168615,13.4100625 37.8830154,12.415375 38.1525538,11.47975 L43.6402462,11.47975 C45.3768615,11.47975 46.3045538,11.0125625 46.4279385,10.2135 C46.6313231,9.195375 46.2024,8.8256875 45.5833231,8.690375 C45.1611692,8.59975 43.7525538,8.6638125 42.5787077,8.5338125 C41.2968615,8.3919375 40.6193231,8.041625 40.1319385,7.4685 C39.6439385,6.8956875 39.3679385,6.086 39.3679385,4.716625 C39.3679385,3.110375 39.8556308,1.9869375 40.6780923,1.256 C41.5144,0.5169375 42.7082462,0.1625625 44.0839385,0.11725 L44.0839385,0.11725 Z M31.4214769,0.132875 C35.1387077,0.132875 38.1771692,3.3175625 38.1771692,7.147875 C38.1771692,11.0231875 35.1528615,14.1638125 31.4214769,14.1638125 C29.8270154,14.1638125 28.3642462,13.5869375 27.2088615,12.62725 C27.9264,11.807875 28.4830154,10.841625 28.8168615,9.771 C29.4802462,10.4694375 30.4017846,10.904125 31.4214769,10.904125 C33.4414769,10.904125 35.0793231,9.202875 35.0793231,7.105375 C35.0793231,5.007875 33.4414769,3.306625 31.4214769,3.306625 C29.4014769,3.306625 27.7636308,5.007875 27.7636308,7.105375 L27.7614769,7.1075625 C27.7497846,8.8119375 27.2728615,10.456625 26.2316308,11.63725 C25.5999385,12.352875 23.8974769,14.1638125 20.9845538,14.1638125 L12.6331692,14.1638125 C13.6042462,12.931 14.2513231,11.041 14.2513231,9.4385 C14.2513231,9.4385 14.2694769,8.981625 14.2694769,7.1794375 C14.2694769,3.2763125 17.3030154,0.1531875 21.0251692,0.1531875 C22.6030154,0.1531875 24.0587077,0.68725 25.1919385,1.632875 C24.4636308,2.4544375 23.9377846,3.4406875 23.6547077,4.5088125 C22.9664,3.810375 22.0362462,3.357875 21.0251692,3.357875 C19.0024,3.357875 17.3436308,5.084125 17.3436308,7.1794375 L17.3436308,9.316 C17.3436308,10.219125 18.0313231,10.9594375 18.9214769,10.9594375 L20.9845538,10.9594375 C22.9664,10.9594375 24.6888615,9.46975 24.6888615,6.716 C24.9051692,3.044125 27.8310154,0.132875 31.4214769,0.132875 L31.4214769,0.132875 Z" id="Fill-8" fill="#FFFFFF" mask="url(#mask-4)"></path>
            </g>
        </g>
    </g>
</svg>