<?xml version="1.0" encoding="UTF-8"?>
<svg width="24px" height="24px" viewBox="0 0 24 24" version="1.1" xmlns="http://www.w3.org/2000/svg" xmlns:xlink="http://www.w3.org/1999/xlink">
    <title>节点</title>
    <g id="节点" stroke="none" stroke-width="1" fill="none" fill-rule="evenodd">
        <g id="Group-8">
            <path d="M4,8 L4,16 L16,16 L16,24 L0,24 L0,8 L4,8 Z" id="Combined-Shape" fill="#FFFFFF"></path>
            <path d="M24,0 L24,6 L6,6 L6,0 L24,0 Z M10.5,1.5 C9.67157288,1.5 9,2.17157288 9,3 C9,3.82842712 9.67157288,4.5 10.5,4.5 C11.3284271,4.5 12,3.82842712 12,3 C12,2.17157288 11.3284271,1.5 10.5,1.5 Z" id="Combined-Shape" fill="#25CEFE"></path>
            <path d="M24,8 L24,14 L6,14 L6,8 L24,8 Z M10.5,9.5 C9.67157288,9.5 9,10.1715729 9,11 C9,11.8284271 9.67157288,12.5 10.5,12.5 C11.3284271,12.5 12,11.8284271 12,11 C12,10.1715729 11.3284271,9.5 10.5,9.5 Z" id="Combined-Shape-Copy-4" fill="#DE24FF"></path>
        </g>
    </g>
</svg>