<?xml version="1.0" encoding="UTF-8"?>
<svg width="24px" height="24px" viewBox="0 0 24 24" version="1.1" xmlns="http://www.w3.org/2000/svg" xmlns:xlink="http://www.w3.org/1999/xlink">
    <title>近15日交易量</title>
    <g id="近15日交易量" stroke="none" stroke-width="1" fill="none" fill-rule="evenodd">
        <g id="Group-6" transform="translate(0.000000, -0.000000)">
            <rect id="Rectangle" fill="#FFFFFF" x="1.57740487e-14" y="11.52" width="6.58285714" height="7.68"></rect>
            <polygon id="Rectangle-Copy-37" fill="#DE24FF" transform="translate(18.102857, 11.132101) rotate(-225.000000) translate(-18.102857, -11.132101) " points="15.0857143 7.56638714 21.6685714 14.1492443 14.5371429 14.6978157"></polygon>
            <path d="M6.99428571,0 C9.49990993,0 11.5439417,1.9763122 11.6525996,4.45515521 L11.6571429,4.66285714 L11.6571429,18.3771429 C11.6571429,19.891981 12.8851618,21.12 14.4,21.12 C15.8607368,21.12 17.0547757,19.9781303 17.138201,18.5383065 L17.1428571,18.3771429 L17.1428571,11.52 L19.0628571,11.52 L19.0628571,18.3771429 C19.0628571,20.9523677 16.9752249,23.04 14.4,23.04 C11.8943758,23.04 9.85034401,21.0636878 9.74168607,18.5848448 L9.73714286,18.3771429 L9.73714286,4.66285714 C9.73714286,3.14801897 8.50912389,1.92 6.99428571,1.92 C5.53354891,1.92 4.33951005,3.06186968 4.25608475,4.50169345 L4.25142857,4.66285714 L4.25142857,11.52 L2.33142857,11.52 L2.33142857,4.66285714 C2.33142857,2.08763225 4.41906082,0 6.99428571,0 Z" id="Path-2" fill="#2BD8FF" fill-rule="nonzero"></path>
        </g>
    </g>
</svg>